#define image_width 16
#define image_height 14
static unsigned char image_bits[] = {
    0x00, 0x00, 0x00, 0x00, 0xF0, 0x03, 0xF0, 0x03, 0x30, 0x0C, 0x30, 0x0C,
    0xF0, 0x03, 0xF0, 0x03, 0x30, 0x0C, 0x30, 0x0C, 0xF0, 0x03, 0xF0, 0x03,
    0x00, 0x00, 0x00, 0x00,
};
