#define image_width 8
#define image_height 7
#define image_x_hot 4
#define image_y_hot 3
static unsigned char image_bits[] = {
    0x00, 0x1C, 0x24, 0x1C, 0x24, 0x1C, 0x00,
};
