#define image_width 7
#define image_height 6
static unsigned char image_bits[] = {0x00,0x1C,0x08,0x08,0x1C,0x00,};