#define image_width 14
#define image_height 12
static unsigned char image_bits[] = {
    0x00, 0x00, 0x00, 0x00, 0xF0, 0x03, 0xF0, 0x03, 0xC0, 0x00, 0xC0, 0x00,
    0xC0, 0x00, 0xC0, 0x00, 0xF0, 0x03, 0xF0, 0x03, 0x00, 0x00, 0x00, 0x00,
};